<mxfile host="app.diagrams.net" agent="Mozilla/5.0 (Windows NT 10.0; Win64; x64) AppleWebKit/537.36 (KHTML, like Gecko) Chrome/128.0.0.0 Safari/537.36 Edg/128.0.0.0" version="24.7.13">
  <diagram id="C5RBs43oDa-KdzZeNtuy" name="Page-1">
    <mxGraphModel dx="1783" dy="533" grid="1" gridSize="10" guides="1" tooltips="1" connect="1" arrows="1" fold="1" page="1" pageScale="1" pageWidth="827" pageHeight="1169" math="0" shadow="0">
      <root>
        <mxCell id="WIyWlLk6GJQsqaUBKTNV-0" />
        <mxCell id="WIyWlLk6GJQsqaUBKTNV-1" parent="WIyWlLk6GJQsqaUBKTNV-0" />
        <mxCell id="AaUk9-nPh-JrRxGQtaRk-0" value="Text" style="text;html=1;align=center;verticalAlign=middle;whiteSpace=wrap;rounded=0;" vertex="1" parent="WIyWlLk6GJQsqaUBKTNV-1">
          <mxGeometry x="-270" y="790" width="60" height="30" as="geometry" />
        </mxCell>
        <mxCell id="AaUk9-nPh-JrRxGQtaRk-9" value="Policy Maker" style="shape=umlActor;verticalLabelPosition=bottom;verticalAlign=top;html=1;outlineConnect=0;" vertex="1" parent="WIyWlLk6GJQsqaUBKTNV-1">
          <mxGeometry x="100" y="240" width="40" height="80" as="geometry" />
        </mxCell>
        <mxCell id="AaUk9-nPh-JrRxGQtaRk-14" value="" style="rounded=0;whiteSpace=wrap;html=1;" vertex="1" parent="WIyWlLk6GJQsqaUBKTNV-1">
          <mxGeometry x="240" y="160" width="290" height="520" as="geometry" />
        </mxCell>
        <mxCell id="AaUk9-nPh-JrRxGQtaRk-15" value="Researche" style="shape=umlActor;verticalLabelPosition=bottom;verticalAlign=top;html=1;outlineConnect=0;" vertex="1" parent="WIyWlLk6GJQsqaUBKTNV-1">
          <mxGeometry x="100" y="400" width="40" height="80" as="geometry" />
        </mxCell>
        <mxCell id="AaUk9-nPh-JrRxGQtaRk-16" value="Data Analysis" style="shape=umlActor;verticalLabelPosition=bottom;verticalAlign=top;html=1;outlineConnect=0;" vertex="1" parent="WIyWlLk6GJQsqaUBKTNV-1">
          <mxGeometry x="100" y="560" width="40" height="80" as="geometry" />
        </mxCell>
        <mxCell id="AaUk9-nPh-JrRxGQtaRk-23" value="Migration Phenomenon Analysis System" style="text;html=1;align=center;verticalAlign=middle;whiteSpace=wrap;rounded=0;fontSize=13;fontStyle=1" vertex="1" parent="WIyWlLk6GJQsqaUBKTNV-1">
          <mxGeometry x="250" y="170" width="270" height="30" as="geometry" />
        </mxCell>
        <mxCell id="AaUk9-nPh-JrRxGQtaRk-24" value="" style="ellipse;whiteSpace=wrap;html=1;" vertex="1" parent="WIyWlLk6GJQsqaUBKTNV-1">
          <mxGeometry x="270" y="220" width="240" height="60" as="geometry" />
        </mxCell>
        <mxCell id="AaUk9-nPh-JrRxGQtaRk-25" value="View World Map Visualization&amp;nbsp;" style="text;html=1;align=center;verticalAlign=middle;whiteSpace=wrap;rounded=0;fontSize=13;" vertex="1" parent="WIyWlLk6GJQsqaUBKTNV-1">
          <mxGeometry x="280" y="235" width="220" height="30" as="geometry" />
        </mxCell>
        <mxCell id="AaUk9-nPh-JrRxGQtaRk-27" value="" style="ellipse;whiteSpace=wrap;html=1;" vertex="1" parent="WIyWlLk6GJQsqaUBKTNV-1">
          <mxGeometry x="270" y="310" width="240" height="60" as="geometry" />
        </mxCell>
        <mxCell id="AaUk9-nPh-JrRxGQtaRk-28" value="" style="ellipse;whiteSpace=wrap;html=1;" vertex="1" parent="WIyWlLk6GJQsqaUBKTNV-1">
          <mxGeometry x="270" y="405" width="240" height="60" as="geometry" />
        </mxCell>
        <mxCell id="AaUk9-nPh-JrRxGQtaRk-29" value="" style="ellipse;whiteSpace=wrap;html=1;" vertex="1" parent="WIyWlLk6GJQsqaUBKTNV-1">
          <mxGeometry x="270" y="500" width="240" height="60" as="geometry" />
        </mxCell>
        <mxCell id="AaUk9-nPh-JrRxGQtaRk-30" value="Analyze Migrant Population Graphs" style="text;html=1;align=center;verticalAlign=middle;whiteSpace=wrap;rounded=0;fontSize=13;" vertex="1" parent="WIyWlLk6GJQsqaUBKTNV-1">
          <mxGeometry x="285" y="325" width="210" height="30" as="geometry" />
        </mxCell>
        <mxCell id="AaUk9-nPh-JrRxGQtaRk-31" value="Explore Feature Analysis" style="text;html=1;align=center;verticalAlign=middle;whiteSpace=wrap;rounded=0;fontSize=13;" vertex="1" parent="WIyWlLk6GJQsqaUBKTNV-1">
          <mxGeometry x="285" y="420" width="210" height="30" as="geometry" />
        </mxCell>
        <mxCell id="AaUk9-nPh-JrRxGQtaRk-32" value="Compute Life Expectancy" style="text;html=1;align=center;verticalAlign=middle;whiteSpace=wrap;rounded=0;fontSize=13;" vertex="1" parent="WIyWlLk6GJQsqaUBKTNV-1">
          <mxGeometry x="285" y="515" width="210" height="30" as="geometry" />
        </mxCell>
        <mxCell id="AaUk9-nPh-JrRxGQtaRk-33" value="" style="ellipse;whiteSpace=wrap;html=1;" vertex="1" parent="WIyWlLk6GJQsqaUBKTNV-1">
          <mxGeometry x="270" y="585" width="240" height="60" as="geometry" />
        </mxCell>
        <mxCell id="AaUk9-nPh-JrRxGQtaRk-34" value="Generate Reports" style="text;html=1;align=center;verticalAlign=middle;whiteSpace=wrap;rounded=0;fontSize=13;" vertex="1" parent="WIyWlLk6GJQsqaUBKTNV-1">
          <mxGeometry x="285" y="600" width="210" height="30" as="geometry" />
        </mxCell>
        <mxCell id="AaUk9-nPh-JrRxGQtaRk-40" value="" style="endArrow=classic;html=1;rounded=0;entryX=0;entryY=0.5;entryDx=0;entryDy=0;exitX=0.75;exitY=0.1;exitDx=0;exitDy=0;exitPerimeter=0;" edge="1" parent="WIyWlLk6GJQsqaUBKTNV-1" source="AaUk9-nPh-JrRxGQtaRk-9" target="AaUk9-nPh-JrRxGQtaRk-24">
          <mxGeometry width="50" height="50" relative="1" as="geometry">
            <mxPoint x="160" y="285" as="sourcePoint" />
            <mxPoint x="210" y="235" as="targetPoint" />
          </mxGeometry>
        </mxCell>
        <mxCell id="AaUk9-nPh-JrRxGQtaRk-41" value="" style="endArrow=classic;html=1;rounded=0;entryX=0;entryY=0.5;entryDx=0;entryDy=0;" edge="1" parent="WIyWlLk6GJQsqaUBKTNV-1">
          <mxGeometry width="50" height="50" relative="1" as="geometry">
            <mxPoint x="130" y="250" as="sourcePoint" />
            <mxPoint x="270" y="341" as="targetPoint" />
          </mxGeometry>
        </mxCell>
        <mxCell id="AaUk9-nPh-JrRxGQtaRk-42" value="" style="endArrow=classic;html=1;rounded=0;entryX=0;entryY=0.5;entryDx=0;entryDy=0;" edge="1" parent="WIyWlLk6GJQsqaUBKTNV-1">
          <mxGeometry width="50" height="50" relative="1" as="geometry">
            <mxPoint x="130" y="250" as="sourcePoint" />
            <mxPoint x="270" y="436" as="targetPoint" />
          </mxGeometry>
        </mxCell>
        <mxCell id="AaUk9-nPh-JrRxGQtaRk-43" value="" style="endArrow=classic;html=1;rounded=0;entryX=0;entryY=0.5;entryDx=0;entryDy=0;exitX=0.75;exitY=0.1;exitDx=0;exitDy=0;exitPerimeter=0;" edge="1" parent="WIyWlLk6GJQsqaUBKTNV-1" source="AaUk9-nPh-JrRxGQtaRk-9" target="AaUk9-nPh-JrRxGQtaRk-33">
          <mxGeometry width="50" height="50" relative="1" as="geometry">
            <mxPoint x="140" y="260" as="sourcePoint" />
            <mxPoint x="280" y="446" as="targetPoint" />
          </mxGeometry>
        </mxCell>
        <mxCell id="AaUk9-nPh-JrRxGQtaRk-44" value="" style="endArrow=classic;html=1;rounded=0;entryX=0;entryY=0.5;entryDx=0;entryDy=0;exitX=0.75;exitY=0.1;exitDx=0;exitDy=0;exitPerimeter=0;" edge="1" parent="WIyWlLk6GJQsqaUBKTNV-1" source="AaUk9-nPh-JrRxGQtaRk-15" target="AaUk9-nPh-JrRxGQtaRk-33">
          <mxGeometry width="50" height="50" relative="1" as="geometry">
            <mxPoint x="140" y="258" as="sourcePoint" />
            <mxPoint x="280" y="625" as="targetPoint" />
          </mxGeometry>
        </mxCell>
        <mxCell id="AaUk9-nPh-JrRxGQtaRk-45" value="" style="endArrow=classic;html=1;rounded=0;entryX=0;entryY=0.5;entryDx=0;entryDy=0;exitX=0.75;exitY=0.1;exitDx=0;exitDy=0;exitPerimeter=0;" edge="1" parent="WIyWlLk6GJQsqaUBKTNV-1" source="AaUk9-nPh-JrRxGQtaRk-16" target="AaUk9-nPh-JrRxGQtaRk-33">
          <mxGeometry width="50" height="50" relative="1" as="geometry">
            <mxPoint x="150" y="268" as="sourcePoint" />
            <mxPoint x="290" y="635" as="targetPoint" />
          </mxGeometry>
        </mxCell>
        <mxCell id="AaUk9-nPh-JrRxGQtaRk-46" value="" style="endArrow=classic;html=1;rounded=0;entryX=0;entryY=0.5;entryDx=0;entryDy=0;exitX=0.75;exitY=0.1;exitDx=0;exitDy=0;exitPerimeter=0;" edge="1" parent="WIyWlLk6GJQsqaUBKTNV-1" source="AaUk9-nPh-JrRxGQtaRk-16" target="AaUk9-nPh-JrRxGQtaRk-29">
          <mxGeometry width="50" height="50" relative="1" as="geometry">
            <mxPoint x="140" y="578" as="sourcePoint" />
            <mxPoint x="280" y="625" as="targetPoint" />
          </mxGeometry>
        </mxCell>
        <mxCell id="AaUk9-nPh-JrRxGQtaRk-47" value="" style="endArrow=classic;html=1;rounded=0;entryX=0;entryY=0.5;entryDx=0;entryDy=0;exitX=0.75;exitY=0.1;exitDx=0;exitDy=0;exitPerimeter=0;" edge="1" parent="WIyWlLk6GJQsqaUBKTNV-1" source="AaUk9-nPh-JrRxGQtaRk-16" target="AaUk9-nPh-JrRxGQtaRk-27">
          <mxGeometry width="50" height="50" relative="1" as="geometry">
            <mxPoint x="140" y="570" as="sourcePoint" />
            <mxPoint x="270" y="545" as="targetPoint" />
          </mxGeometry>
        </mxCell>
        <mxCell id="AaUk9-nPh-JrRxGQtaRk-48" value="" style="endArrow=classic;html=1;rounded=0;entryX=0;entryY=0.5;entryDx=0;entryDy=0;" edge="1" parent="WIyWlLk6GJQsqaUBKTNV-1" target="AaUk9-nPh-JrRxGQtaRk-24">
          <mxGeometry width="50" height="50" relative="1" as="geometry">
            <mxPoint x="130" y="570" as="sourcePoint" />
            <mxPoint x="280" y="350" as="targetPoint" />
          </mxGeometry>
        </mxCell>
        <mxCell id="AaUk9-nPh-JrRxGQtaRk-50" value="" style="endArrow=classic;html=1;rounded=0;exitX=0.75;exitY=0.1;exitDx=0;exitDy=0;exitPerimeter=0;entryX=0;entryY=0.5;entryDx=0;entryDy=0;" edge="1" parent="WIyWlLk6GJQsqaUBKTNV-1" source="AaUk9-nPh-JrRxGQtaRk-15" target="AaUk9-nPh-JrRxGQtaRk-28">
          <mxGeometry width="50" height="50" relative="1" as="geometry">
            <mxPoint x="140" y="418" as="sourcePoint" />
            <mxPoint x="280" y="625" as="targetPoint" />
          </mxGeometry>
        </mxCell>
        <mxCell id="AaUk9-nPh-JrRxGQtaRk-51" value="" style="endArrow=classic;html=1;rounded=0;exitX=0.75;exitY=0.1;exitDx=0;exitDy=0;exitPerimeter=0;entryX=0;entryY=0.5;entryDx=0;entryDy=0;" edge="1" parent="WIyWlLk6GJQsqaUBKTNV-1" source="AaUk9-nPh-JrRxGQtaRk-15" target="AaUk9-nPh-JrRxGQtaRk-27">
          <mxGeometry width="50" height="50" relative="1" as="geometry">
            <mxPoint x="150" y="428" as="sourcePoint" />
            <mxPoint x="290" y="635" as="targetPoint" />
          </mxGeometry>
        </mxCell>
        <mxCell id="AaUk9-nPh-JrRxGQtaRk-52" value="" style="endArrow=classic;html=1;rounded=0;exitX=0.75;exitY=0.1;exitDx=0;exitDy=0;exitPerimeter=0;entryX=0;entryY=0.5;entryDx=0;entryDy=0;" edge="1" parent="WIyWlLk6GJQsqaUBKTNV-1" source="AaUk9-nPh-JrRxGQtaRk-15" target="AaUk9-nPh-JrRxGQtaRk-29">
          <mxGeometry width="50" height="50" relative="1" as="geometry">
            <mxPoint x="140" y="418" as="sourcePoint" />
            <mxPoint x="280" y="445" as="targetPoint" />
          </mxGeometry>
        </mxCell>
        <mxCell id="AaUk9-nPh-JrRxGQtaRk-53" value="" style="endArrow=classic;html=1;rounded=0;exitX=0.75;exitY=0.1;exitDx=0;exitDy=0;exitPerimeter=0;entryX=0;entryY=0.5;entryDx=0;entryDy=0;" edge="1" parent="WIyWlLk6GJQsqaUBKTNV-1" source="AaUk9-nPh-JrRxGQtaRk-15" target="AaUk9-nPh-JrRxGQtaRk-24">
          <mxGeometry width="50" height="50" relative="1" as="geometry">
            <mxPoint x="140" y="418" as="sourcePoint" />
            <mxPoint x="280" y="350" as="targetPoint" />
          </mxGeometry>
        </mxCell>
      </root>
    </mxGraphModel>
  </diagram>
</mxfile>
